<?xml version="1.0" encoding="UTF-8" standalone="no"?>
<svg
   xmlns:dc="http://purl.org/dc/elements/1.1/"
   xmlns:cc="http://creativecommons.org/ns#"
   xmlns:rdf="http://www.w3.org/1999/02/22-rdf-syntax-ns#"
   xmlns:svg="http://www.w3.org/2000/svg"
   xmlns="http://www.w3.org/2000/svg"
   xmlns:sodipodi="http://sodipodi.sourceforge.net/DTD/sodipodi-0.dtd"
   xmlns:inkscape="http://www.inkscape.org/namespaces/inkscape"
   inkscape:version="1.0 (4035a4fb49, 2020-05-01)"
   sodipodi:docname="base16-anderfuller-scheme.svg"
   id="svg34"
   version="1.1"
   viewBox="0 0 16 1">
  <metadata
     id="metadata40">
    <rdf:RDF>
      <cc:Work
         rdf:about="">
        <dc:format>image/svg+xml</dc:format>
        <dc:type
           rdf:resource="http://purl.org/dc/dcmitype/StillImage" />
      </cc:Work>
    </rdf:RDF>
  </metadata>
  <defs
     id="defs38" />
  <sodipodi:namedview
     inkscape:current-layer="svg34"
     inkscape:window-maximized="1"
     inkscape:window-y="-8"
     inkscape:window-x="1912"
     inkscape:cy="0.48924864"
     inkscape:cx="6.9462102"
     inkscape:zoom="68.3125"
     showgrid="false"
     id="namedview36"
     inkscape:window-height="1017"
     inkscape:window-width="1920"
     inkscape:pageshadow="2"
     inkscape:pageopacity="0"
     guidetolerance="10"
     gridtolerance="10"
     objecttolerance="10"
     borderopacity="1"
     bordercolor="#666666"
     pagecolor="#ffffff" />
  <path
     id="path2"
     d="M0 1h1V0H0v1z" />
  <path
     style="fill:#242424;fill-opacity:1"
     id="path4"
     fill="#252525"
     d="M1 1h1V0H1v1z" />
  <path
     style="fill:#494949;fill-opacity:1"
     id="path6"
     fill="#4a4a4a"
     d="M2 1h1V0H2v1z" />
  <path
     style="fill:#6d6d6d;fill-opacity:1"
     id="path8"
     fill="#6f6f6f"
     d="M3 1h1V0H3v1z" />
  <path
     style="fill:#929292;fill-opacity:1"
     id="path10"
     fill="#949494"
     d="M4 1h1V0H4v1z" />
  <path
     style="fill:#b6b6b6;fill-opacity:1"
     id="path12"
     fill="#b9b9b9"
     d="M5 1h1V0H5v1z" />
  <path
     style="fill:#dbdbdb;fill-opacity:1"
     id="path14"
     fill="#dedede"
     d="M6 1h1V0H6v1z" />
  <path
     id="path16"
     fill="#fff"
     d="M7 1h1V0H7v1z" />
  <path
     style="fill:#f84935;fill-opacity:1"
     id="path18"
     fill="#f83f35"
     d="M8 1h1V0H8v1z" />
  <path
     id="path20"
     fill="#f86734"
     d="M9 1h1V0H9v1z" />
  <path
     id="path22"
     fill="#f8c934"
     d="M10 1h1V0h-1v1z" />
  <path
     style="fill:#35f869;fill-opacity:1"
     id="path24"
     fill="#35f870"
     d="M11 1h1V0h-1v1z" />
  <path
     id="path26"
     fill="#34c5f8"
     d="M12 1h1V0h-1v1z" />
  <path
     style="fill:#3563f8;fill-opacity:1"
     id="path28"
     fill="#3463f8"
     d="M13 1h1V0h-1v1z" />
  <path
     style="fill:#ca35f8;fill-opacity:1"
     id="path30"
     fill="#f83fbd"
     d="M14 1h1V0h-1v1z" />
  <path
     style="fill:#853417;fill-opacity:1"
     id="path32"
     fill="#723510"
     d="M15 1h1V0h-1v1z" />
</svg>
